<?xml version="1.0" standalone="no"?>
<!DOCTYPE svg PUBLIC "-//W3C//DTD SVG 20010904//EN"
 "http://www.w3.org/TR/2001/REC-SVG-20010904/DTD/svg10.dtd">
<svg version="1.0" xmlns="http://www.w3.org/2000/svg"
 width="1052.000000pt" height="1052.000000pt" viewBox="0 0 1052.000000 1052.000000"
 preserveAspectRatio="xMidYMid meet">
<metadata>
Created by potrace 1.11, written by Peter Selinger 2001-2013
</metadata>
<g transform="translate(0.000000,1052.000000) scale(0.100000,-0.100000)"
fill="#000000" stroke="none">
<path d="M5067 10496 c-7 -17 1 -26 20 -26 34 0 45 -28 35 -85 -9 -52 -8 -56
20 -87 27 -31 28 -35 28 -144 0 -72 4 -114 11 -116 6 -2 13 -26 15 -53 8 -78
10 -86 24 -95 22 -14 22 -48 -1 -60 -31 -17 -57 -46 -59 -67 -5 -45 1 -74 20
-93 11 -11 16 -20 11 -20 -8 0 -13 -21 -27 -115 -2 -16 -6 -41 -9 -55 -2 -14
-7 -45 -10 -70 -3 -25 -7 -56 -10 -70 -2 -13 -7 -42 -10 -65 -15 -105 -26
-176 -32 -210 -2 -16 -6 -46 -9 -65 -5 -47 -18 -128 -29 -190 -2 -8 -6 -37 -9
-65 -4 -27 -8 -61 -11 -75 -2 -14 -7 -43 -10 -65 -3 -22 -10 -68 -16 -103 -5
-34 -12 -84 -16 -110 -9 -71 -11 -87 -13 -87 -1 0 -5 -22 -14 -95 -3 -25 -7
-54 -10 -65 -2 -11 -7 -42 -11 -70 -4 -27 -8 -61 -10 -75 -2 -14 -5 -55 -6
-92 -1 -49 -5 -68 -16 -72 -12 -5 -14 -1 -11 19 3 14 1 28 -4 31 -4 3 -5 11
-1 17 14 22 11 37 -6 47 -17 8 -29 50 -47 160 -3 14 -7 30 -9 37 -2 7 0 15 5
18 5 3 7 12 4 20 -5 11 -11 12 -25 4 -14 -7 -17 -14 -11 -26 6 -9 6 -31 0 -52
-5 -20 -11 -49 -13 -66 -10 -63 -17 -84 -32 -89 -13 -5 -14 -20 -9 -89 7 -96
13 -644 8 -669 -8 -33 -20 -8 -17 32 2 22 0 38 -4 36 -17 -11 -28 14 -40 84
-13 74 -15 83 -27 146 -3 18 -1 34 4 38 13 8 3 46 -12 46 -26 -1 -38 -17 -30
-41 4 -13 7 -28 5 -34 -2 -5 -5 -26 -7 -45 -2 -19 -9 -57 -14 -85 -5 -27 -11
-59 -13 -70 -4 -28 -17 -46 -28 -40 -5 4 -9 -31 -9 -84 0 -50 4 -91 8 -91 5 0
8 -118 8 -262 -1 -242 -2 -263 -18 -266 -15 -3 -18 5 -18 52 0 48 -3 56 -19
56 -18 0 -22 10 -37 90 -5 26 -17 85 -20 95 -12 45 -14 88 -5 99 8 9 7 18 -2
31 -11 14 -17 16 -35 6 -18 -10 -20 -15 -12 -32 10 -18 9 -42 -8 -124 -3 -16
-6 -40 -6 -52 -1 -13 -3 -23 -6 -23 -3 0 -7 -10 -7 -22 -4 -47 -14 -68 -31
-68 -16 0 -18 -10 -17 -101 0 -55 5 -103 10 -107 8 -5 13 -1502 6 -1637 -1
-19 -7 -20 -78 -19 -43 1 -84 2 -90 3 -9 1 -12 15 -10 42 2 22 -1 43 -7 47 -6
4 -44 7 -83 8 -82 1 -75 11 -77 -101 l-1 -60 -65 0 -65 0 2 42 c0 26 -4 43
-10 44 -7 1 -45 2 -85 3 l-73 1 2 -73 c1 -40 0 -75 -3 -77 -4 -5 -119 -8 -168
-6 -13 1 -15 91 -13 757 1 417 5 760 10 763 4 3 7 40 7 81 -2 94 -2 92 -13 86
-12 -8 -18 10 -37 103 -23 106 -22 104 -13 122 10 19 -4 43 -22 37 -9 -3 -14
-23 -16 -54 -3 -84 -32 -216 -48 -214 -5 0 -11 -18 -13 -40 -2 -27 -8 -40 -18
-40 -16 0 -16 0 -15 100 1 41 1 80 1 85 0 6 -1 21 -3 35 -2 14 1 33 5 43 5 9
5 17 1 17 -9 0 -8 24 3 199 5 65 3 92 -4 87 -12 -7 -18 8 -31 89 -6 33 -13 72
-16 88 -3 15 -1 36 5 46 7 15 6 20 -6 25 -26 10 -32 -1 -29 -51 1 -27 -1 -57
-5 -68 -4 -11 -11 -43 -14 -70 -4 -27 -14 -54 -22 -58 -8 -4 -14 -22 -14 -38
0 -17 -3 -28 -7 -26 -8 5 -7 423 0 552 2 43 -1 63 -11 71 -8 6 -16 21 -18 35
-2 13 -6 38 -10 54 -3 17 -7 46 -8 65 -1 38 -21 44 -21 7 -1 -18 -12 -84 -21
-119 -1 -5 -2 -17 -3 -28 0 -11 -7 -20 -15 -20 -9 0 -14 -10 -14 -27 1 -57 -2
-74 -12 -68 -6 4 -10 30 -10 58 1 29 -1 63 -4 77 -2 14 -7 44 -10 68 -3 23 -9
61 -12 85 -3 23 -8 53 -10 67 -8 42 -13 73 -19 120 -3 25 -8 56 -10 70 -2 14
-6 43 -9 65 -3 22 -10 69 -16 105 -13 78 -16 100 -25 165 -4 28 -9 59 -10 70
-2 11 -6 40 -9 65 -4 25 -11 70 -16 100 -9 53 -25 161 -36 245 -9 68 -12 84
-19 95 -4 6 -1 17 5 25 22 26 16 82 -10 105 -12 11 -26 20 -30 20 -4 0 -7 18
-8 40 -1 22 2 40 7 40 19 0 23 41 7 65 -9 13 -16 38 -16 55 0 25 -4 31 -17 28
-13 -2 -18 -12 -16 -35 1 -17 -5 -37 -13 -44 -18 -14 -18 -43 -1 -61 7 -7 13
-29 12 -48 -3 -49 -4 -52 -14 -45 -11 6 -51 -41 -51 -61 0 -7 5 -25 12 -41 6
-15 10 -32 9 -38 -6 -21 -10 -44 -16 -96 -4 -30 -8 -56 -10 -59 -2 -3 -7 -35
-10 -70 -4 -36 -8 -67 -10 -70 -2 -4 -6 -31 -9 -61 -3 -30 -8 -65 -11 -79 -7
-36 -13 -69 -19 -120 -3 -25 -8 -54 -10 -65 -2 -11 -7 -42 -11 -70 -17 -126
-40 -280 -61 -412 -3 -21 -7 -51 -10 -68 -7 -52 -13 -90 -14 -90 -4 0 -12 -88
-13 -137 0 -37 -5 -58 -12 -58 -7 0 -12 16 -12 40 0 21 -6 47 -14 56 -7 9 -14
21 -15 28 -1 6 -5 27 -9 46 -4 19 -8 52 -8 73 -1 28 -5 37 -19 37 -14 0 -16
-4 -8 -24 5 -13 6 -27 2 -31 -4 -4 -7 -10 -8 -13 -5 -59 -19 -115 -29 -119
-10 -3 -13 -22 -10 -66 3 -65 7 -399 5 -502 -1 -41 -4 -54 -9 -40 -5 11 -6 24
-4 28 3 5 -2 14 -9 20 -14 11 -30 71 -43 161 -3 21 -8 42 -11 47 -3 5 0 9 5 9
17 0 13 30 -5 37 -19 7 -37 -16 -25 -32 9 -11 8 -19 -14 -140 -9 -43 -21 -82
-27 -86 -13 -8 -19 -129 -7 -129 5 0 8 -97 8 -215 0 -180 -3 -215 -15 -215
-15 0 -15 -1 -18 50 -1 20 -6 34 -13 33 -6 -1 -16 20 -22 47 -6 28 -16 71 -21
98 -6 26 -9 63 -8 82 2 25 -1 35 -13 38 -18 3 -35 -28 -20 -37 5 -4 3 -33 -6
-71 -8 -36 -16 -77 -18 -92 -8 -47 -10 -53 -25 -65 -11 -8 -15 -32 -16 -87 0
-42 3 -76 7 -76 4 0 8 -1387 8 -3082 0 -1696 1 -3091 1 -3100 0 -17 158 -18
3170 -18 l3170 0 0 48 c0 26 1 1418 1 3094 0 1676 4 3050 8 3052 5 3 8 42 7
85 -1 64 -5 83 -19 93 -9 7 -19 27 -22 43 -2 17 -7 48 -10 70 -3 22 -10 53
-16 70 -6 20 -6 31 1 33 16 6 12 29 -7 36 -24 9 -40 -10 -27 -32 8 -12 7 -33
-3 -77 -8 -33 -16 -69 -19 -80 -13 -64 -17 -74 -27 -72 -7 1 -13 -12 -13 -33
-3 -57 -3 -60 -19 -54 -12 5 -14 41 -14 215 0 114 3 210 7 213 13 8 7 141 -6
139 -7 -2 -12 0 -13 5 0 4 -2 14 -4 22 -1 8 -5 29 -8 45 -3 17 -8 46 -11 65
-13 66 -13 75 -3 88 8 10 7 16 -4 23 -21 13 -34 4 -31 -22 1 -13 -2 -53 -8
-89 -20 -130 -25 -145 -40 -135 -4 3 -8 -11 -8 -31 0 -19 -3 -38 -7 -42 -4 -4
-5 133 -4 304 3 214 0 316 -7 325 -12 15 -22 60 -33 144 -7 58 -24 63 -27 8
-1 -21 -5 -51 -8 -68 -4 -16 -9 -42 -12 -57 -3 -16 -11 -28 -18 -28 -9 0 -12
-13 -9 -45 3 -33 1 -45 -9 -45 -10 0 -14 16 -14 58 -1 31 -4 74 -7 95 -7 37
-13 76 -22 145 -3 20 -7 48 -10 62 -3 14 -7 41 -9 60 -3 19 -7 44 -9 55 -3 11
-8 47 -12 80 -3 32 -8 62 -10 66 -2 3 -7 30 -10 60 -3 30 -7 65 -9 79 -7 41
-17 102 -22 140 -5 44 -12 88 -18 119 -3 13 -8 47 -10 75 -3 29 -7 59 -10 67
-3 8 -8 34 -11 59 -11 85 -16 122 -25 168 -4 26 -6 50 -4 54 3 5 -2 11 -11 14
-14 6 -14 8 0 18 8 6 17 25 21 42 5 25 0 36 -27 65 -35 36 -45 83 -22 107 17
17 17 47 0 61 -8 6 -13 23 -12 38 1 26 -9 42 -27 43 -5 0 -8 -15 -8 -34 0 -19
-7 -41 -15 -50 -8 -8 -15 -21 -15 -29 0 -8 7 -20 15 -27 17 -14 21 -90 5 -90
-6 0 -22 -11 -35 -25 -17 -20 -22 -34 -18 -58 3 -18 10 -35 15 -38 6 -4 8 -15
4 -25 -4 -11 -10 -35 -12 -54 -3 -19 -14 -93 -25 -165 -11 -71 -22 -143 -24
-160 -1 -16 -8 -57 -13 -90 -6 -33 -13 -80 -16 -105 -4 -25 -8 -55 -11 -68 -2
-13 -9 -56 -14 -95 -6 -40 -13 -90 -16 -112 -3 -22 -8 -53 -10 -70 -2 -16 -5
-30 -6 -30 -1 0 -3 -11 -4 -25 -7 -58 -23 -174 -30 -205 -2 -11 -7 -42 -10
-70 -4 -27 -9 -59 -12 -70 -3 -11 -5 -46 -4 -77 1 -43 -2 -58 -12 -58 -10 0
-13 11 -11 38 1 20 -3 44 -11 52 -16 20 -37 108 -39 170 -1 34 -21 27 -21 -8
-1 -52 -29 -162 -41 -162 -9 0 -11 -16 -7 -62 8 -101 10 -521 2 -543 -6 -16
-8 -13 -8 13 -1 18 -7 35 -15 38 -7 3 -17 24 -21 47 -3 23 -9 58 -12 77 -4 19
-6 57 -5 83 0 40 -2 48 -16 45 -13 -2 -17 -15 -18 -48 0 -25 -4 -61 -8 -80 -3
-19 -9 -48 -12 -65 -10 -52 -15 -65 -25 -60 -5 4 -9 -11 -10 -32 0 -21 -1 -53
-2 -71 -1 -17 3 -32 8 -32 11 0 12 -261 1 -279 -4 -6 -4 -11 1 -11 7 0 8 -29
4 -132 -1 -11 -6 -15 -16 -12 -10 4 -15 19 -15 43 0 24 -7 42 -20 54 -11 10
-21 31 -22 49 -1 31 -3 46 -8 58 -6 18 -11 51 -13 92 -1 26 -5 50 -9 54 -12
11 -40 -17 -29 -30 10 -13 6 -44 -33 -216 -2 -8 -9 -14 -15 -13 -12 3 -13 1
-15 -77 -1 -30 2 -66 7 -80 8 -24 12 -1518 4 -1526 -2 -2 -33 -5 -68 -5 -116
-1 -105 -8 -107 72 -1 40 -4 74 -7 77 -6 6 -134 10 -151 5 -6 -2 -10 -23 -9
-48 l1 -43 -67 1 -68 1 3 72 c2 40 0 77 -3 82 -3 5 -42 9 -85 8 l-80 -1 1 -48
c1 -26 -2 -47 -5 -48 -31 -5 -155 -3 -165 3 -15 9 -17 1649 -2 1655 7 2 11 43
10 101 0 84 -2 97 -17 100 -10 2 -18 7 -19 10 0 4 -2 14 -4 22 -46 220 -47
232 -37 254 7 17 7 27 -1 35 -26 26 -63 0 -46 -32 8 -14 6 -42 -5 -100 -9 -45
-18 -93 -21 -107 -13 -72 -17 -80 -36 -80 -13 0 -20 -6 -18 -17 1 -10 1 -35 0
-56 -1 -31 -4 -38 -18 -35 -17 3 -18 24 -19 266 0 144 4 262 8 262 4 0 8 40 8
89 0 77 -2 89 -18 93 -10 3 -18 14 -19 25 -1 11 -6 46 -12 79 -6 32 -14 73
-16 89 -3 17 -8 38 -11 48 -3 9 0 17 6 17 17 0 7 44 -10 47 -8 2 -22 -1 -30
-7 -13 -8 -13 -13 -2 -31 9 -13 11 -32 6 -52 -4 -18 -8 -43 -10 -57 -1 -14 -3
-26 -4 -27 -4 -4 -5 -14 -14 -74 -5 -43 -12 -58 -26 -62 -14 -3 -17 -13 -15
-41 2 -36 -9 -58 -17 -33 -7 21 -1 601 6 618 12 28 3 144 -11 141 -7 -1 -13 4
-14 10 0 7 -2 20 -4 28 -1 8 -5 29 -8 45 -3 17 -10 51 -15 78 -6 29 -6 50 0
53 5 3 4 12 -3 20 -9 11 -15 12 -25 3 -10 -8 -11 -15 -4 -24 5 -6 8 -14 5 -16
-2 -3 -6 -21 -9 -39 -3 -19 -7 -46 -10 -60 -3 -14 -9 -40 -12 -58 -4 -19 -13
-36 -20 -39 -10 -4 -14 -23 -14 -64 0 -47 -3 -57 -15 -53 -10 4 -14 22 -14 67
1 59 -2 82 -16 170 -4 20 -8 47 -10 60 -1 12 -5 38 -8 57 -4 19 -9 58 -13 85
-3 28 -8 60 -9 72 -3 22 -14 90 -20 123 -2 8 -6 38 -9 65 -4 28 -9 62 -11 77
-3 15 -16 102 -30 195 -14 92 -27 182 -30 198 -13 76 -15 93 -21 145 -3 30 -7
57 -9 60 -2 3 -6 33 -10 65 -3 33 -9 69 -12 80 -7 22 -12 61 -16 115 -1 19 -5
40 -8 45 -3 6 -7 28 -8 49 -2 22 -7 50 -12 63 -6 17 -4 31 7 48 35 54 16 123
-43 153 -15 9 -20 20 -19 43 1 17 7 34 13 37 7 4 11 31 10 59 0 28 4 57 10 65
6 7 10 46 9 86 0 41 2 76 7 79 4 2 6 1 5 -4 -4 -15 43 -104 52 -98 7 4 -4 58
-25 123 -3 7 -4 14 -5 17 0 3 -7 19 -16 36 -11 23 -21 30 -35 26 -15 -4 -19 0
-20 24 -2 33 -2 36 -13 67 -8 23 -44 30 -62 12 -6 -6 -30 11 -69 50 -63 64
-70 68 -78 46z m319 -4830 c45 -23 78 -58 99 -101 18 -38 19 -69 20 -517 l1
-478 -211 0 -210 0 1 478 c1 460 2 479 22 517 54 106 182 153 278 101z m-2480
-542 c15 -11 37 -33 48 -48 20 -26 21 -40 21 -294 l0 -267 -155 0 -155 0 0
260 c0 253 1 261 23 297 12 20 37 45 55 56 43 26 126 24 163 -4z m4879 2 c12
-8 33 -32 46 -53 23 -37 24 -43 24 -298 l0 -260 -157 -1 -158 0 0 253 c0 289
3 303 72 353 39 29 48 31 96 27 30 -3 64 -13 77 -21z m-2360 -1031 c32 -24 63
-69 73 -105 2 -8 5 -326 6 -707 1 -612 0 -692 -14 -695 -13 -3 -348 -2 -390 1
-13 1 -15 85 -14 693 l1 693 22 47 c31 64 96 110 171 121 37 5 106 -18 145
-48z m-2524 -7 c25 -14 46 -37 59 -63 19 -39 20 -59 18 -296 l-3 -254 -145 -1
c-80 0 -150 1 -156 3 -7 2 -10 89 -9 261 1 221 3 261 18 289 16 30 54 64 87
76 34 13 94 6 131 -15z m4887 -5 c15 -11 36 -35 47 -54 18 -32 20 -53 20 -291
1 -250 0 -257 -20 -260 -11 -2 -81 -3 -155 -3 l-135 1 -3 253 c-2 240 -1 256
18 297 12 24 30 46 41 49 10 4 19 10 19 15 0 27 130 22 168 -7z m-3785 -49
c37 -8 102 -75 117 -120 33 -98 -5 -205 -88 -251 -162 -91 -339 101 -251 271
23 45 43 67 79 86 51 27 73 29 143 14z m2643 -8 c56 -24 100 -79 110 -141 11
-66 3 -112 -28 -159 -36 -54 -138 -111 -154 -85 -3 5 -10 7 -15 3 -17 -10 -81
18 -111 48 -57 59 -77 157 -45 231 23 53 81 104 130 115 50 10 60 9 113 -12z
m-3731 -857 c60 -42 65 -69 65 -364 0 -205 -3 -265 -12 -266 -109 -5 -299 -2
-301 6 -7 21 0 521 8 550 10 36 69 92 104 98 47 8 104 -3 136 -24z m1120 0
c65 -45 69 -62 69 -362 1 -260 0 -267 -19 -268 -59 -3 -286 0 -292 4 -10 6 -9
488 1 540 4 20 11 37 16 37 6 0 10 6 10 13 1 15 43 46 78 58 42 13 99 4 137
-22z m2622 6 c8 -8 18 -15 22 -15 4 0 18 -19 31 -42 23 -40 23 -49 24 -282 1
-133 0 -254 -2 -271 l-4 -30 -144 2 c-80 1 -151 3 -157 6 -9 3 -12 71 -11 274
1 247 2 271 20 298 26 40 53 63 89 74 39 12 113 4 132 -14z m1131 -5 c65 -48
67 -57 67 -357 1 -240 -1 -273 -15 -274 -8 0 -78 -1 -155 -1 l-140 -1 -3 266
c-2 212 1 274 12 301 14 34 66 80 101 89 37 10 104 -2 133 -23z m-4887 -985
c16 -9 40 -32 53 -52 l25 -36 1 -288 1 -289 -23 -1 c-112 -3 -277 -1 -285 4
-6 4 -9 112 -9 290 1 283 1 284 25 319 49 71 135 92 212 53z m4874 -3 c77 -39
79 -49 80 -370 1 -179 -3 -285 -9 -289 -5 -4 -75 -6 -155 -6 l-146 0 -3 269
c-1 148 0 283 3 301 3 19 22 48 46 72 56 54 111 61 184 23z m-3764 -50 c14 -6
40 -23 56 -39 43 -40 53 -62 68 -143 7 -45 -52 -168 -82 -169 -7 -1 -13 -5
-13 -10 0 -16 -70 -33 -115 -28 -124 16 -202 159 -152 279 41 97 145 145 238
110z m2648 -10 c50 -25 96 -96 99 -152 2 -25 5 -46 7 -49 3 -2 0 -10 -6 -18
-6 -7 -8 -13 -5 -13 4 0 -4 -21 -19 -47 -37 -68 -85 -97 -160 -97 -62 0 -99
16 -138 59 -22 26 -48 85 -42 95 3 5 1 11 -4 14 -13 9 -2 75 21 124 45 96 152
132 247 84z m-1245 -61 c32 -22 53 -47 69 -82 l22 -50 0 -692 0 -692 -207 -1
c-182 0 -208 2 -209 15 0 9 -1 322 -1 696 0 611 2 684 17 718 51 120 201 162
309 88z m1268 -676 c2 2 26 -13 53 -33 32 -25 59 -56 76 -91 23 -46 27 -65 26
-145 0 -51 3 -98 7 -104 4 -7 4 -12 -1 -12 -10 0 -9 -132 1 -149 4 -6 4 -11
-1 -11 -8 0 -8 -134 1 -156 3 -7 2 -16 -3 -18 -4 -3 -6 -30 -3 -60 2 -31 0
-57 -4 -57 -34 -6 -480 -4 -484 2 -3 4 -5 153 -4 331 1 365 3 376 80 450 41
41 120 73 160 65 13 -2 24 0 24 5 0 4 15 2 34 -6 19 -8 36 -13 38 -11z m-2652
-7 c47 -20 98 -73 123 -128 19 -42 20 -66 21 -372 1 -283 -1 -327 -14 -330 -8
-2 -118 -4 -245 -3 l-230 0 -1 45 c-1 25 -3 50 -4 55 -1 6 -1 12 0 15 6 15 4
193 -3 197 -4 2 -4 9 -1 15 10 15 10 119 1 125 -4 2 -5 9 -2 14 3 5 7 55 9
111 4 126 5 129 68 200 64 73 183 96 278 56z m-1143 -160 c38 -17 62 -43 79
-84 11 -26 14 -95 14 -311 l0 -278 -157 0 -158 0 -1 275 c-1 213 2 283 13 311
14 35 41 65 79 87 26 15 97 15 131 0z m4880 -3 c38 -19 59 -42 76 -85 11 -27
14 -98 13 -310 l-1 -275 -155 0 -155 0 -3 279 c-2 265 -1 281 19 322 11 24 29
46 40 49 10 4 19 10 19 15 0 22 106 26 147 5z"/>
</g>
</svg>
